<?xml version="1.0" encoding="UTF-8"?>
<svg viewBox="0 0 120 128" xmlns="http://www.w3.org/2000/svg"><path d="M60 30 C60 22 58 16 52 12" fill="none" stroke="#B9836A" stroke-width="4" stroke-linecap="round"></path><g stroke="rgba(255,255,255,0.55)" stroke-width="4"><circle cx="44" cy="46" r="15" fill="#BDE36F"></circle><circle cx="76" cy="46" r="15" fill="#BDE36F"></circle><circle cx="60" cy="42" r="15" fill="#ACD75C"></circle><circle cx="36" cy="72" r="15" fill="#ACD75C"></circle><circle cx="84" cy="72" r="15" fill="#ACD75C"></circle><circle cx="60" cy="70" r="16" fill="#BDE36F"></circle><circle cx="48" cy="96" r="15" fill="#BDE36F"></circle><circle cx="72" cy="96" r="15" fill="#ACD75C"></circle><circle cx="60" cy="112" r="13" fill="#BDE36F"></circle></g><ellipse cx="52" cy="62" rx="7" ry="4.4" transform="rotate(-28 52 62)" fill="rgba(255,255,255,0.75)"></ellipse><ellipse cx="40" cy="42" rx="5" ry="3.2" transform="rotate(-28 40 42)" fill="rgba(255,255,255,0.75)"></ellipse><path d="M100 30 L102.2 35 L107 37 L102.2 39 L100 44 L97.8 39 L93 37 L97.8 35 Z" fill="#FFD24A"></path><path d="M18 96 L19.6 99.6 L23 101 L19.6 102.4 L18 106 L16.4 102.4 L13 101 L16.4 99.6 Z" fill="#FFFFFF"></path></svg>