<?xml version="1.0" encoding="UTF-8"?>
<svg viewBox="0 0 120 128" xmlns="http://www.w3.org/2000/svg"><circle cx="60" cy="74" r="42" fill="#FFA132" stroke="rgba(255,255,255,0.55)" stroke-width="5"></circle><ellipse cx="60" cy="30" rx="5" ry="7" fill="#B9836A"></ellipse><path d="M64 30 C74 20 84 20 92 26 C82 32 74 34 66 34 Z" fill="#4ED8B5"></path><ellipse cx="44" cy="60" rx="12" ry="7" transform="rotate(-28 44 60)" fill="rgba(255,255,255,0.6)"></ellipse><circle cx="52" cy="86" r="2.4" fill="rgba(255,255,255,0.7)"></circle><circle cx="66" cy="94" r="2.4" fill="rgba(255,255,255,0.7)"></circle><path d="M100 30 L102.2 35 L107 37 L102.2 39 L100 44 L97.8 39 L93 37 L97.8 35 Z" fill="#FFD24A"></path><path d="M18 96 L19.6 99.6 L23 101 L19.6 102.4 L18 106 L16.4 102.4 L13 101 L16.4 99.6 Z" fill="#FFFFFF"></path></svg>